<svg xmlns="http://www.w3.org/2000/svg" xmlns:xlink="http://www.w3.org/1999/xlink" width="389" height="349" viewBox="0 0 389 349">
   <defs>
       <path id="a" d="M157.214 76.816s-1.665 12.204 4.437 14.98c6.102 2.775 10.535 12.187 10.535 12.187l-4.99 1.11s-1.665 7.765 2.772 9.984c4.436 2.22 16.637 0 16.637 0s5.55-2.775 1.11-11.65c-4.441-8.876-17.187-28.273-17.187-28.273s-6.659-7.213-13.314 1.662z"/>
       <filter id="b" width="112.3%" height="109.2%" x="-6.2%" y="-4.6%" filterUnits="objectBoundingBox">
           <feGaussianBlur in="SourceAlpha" result="shadowBlurInner1" stdDeviation="1.5"/>
           <feOffset dy="1" in="shadowBlurInner1" result="shadowOffsetInner1"/>
           <feComposite in="shadowOffsetInner1" in2="SourceAlpha" k2="-1" k3="1" operator="arithmetic" result="shadowInnerInner1"/>
           <feColorMatrix in="shadowInnerInner1" values="0 0 0 0 0 0 0 0 0 0 0 0 0 0 0 0 0 0 0.110085227 0"/>
       </filter>
   </defs>
   <g fill="none" fill-rule="evenodd">
       <path fill="#EF63FF" fill-rule="nonzero" d="M.445 303.725c2.108 24.72 11.027 45.19 11.027 45.19l371.465.084a5 5 0 0 0 5.001-4.985l1.05-339.957a4 4 0 0 0-4.044-4.012L264.837 1.363s-48.34-5.55-97.897 33.668a132.416 132.416 0 0 0-4.552 3.774 135.214 135.214 0 0 0-18.919 20.084 140.231 140.231 0 0 0-27.668 68.136c-2.39 19.413-8.448 44.086-23.193 64.53-.515.697-1.03 1.392-1.545 2.085-10.17 13.352-24.228 24.719-43.63 31.304-18.355 6.238-30.089 16.35-37.286 28.196C.672 268.659-.973 287.152.445 303.725z"/>
       <path fill="#000" fill-rule="nonzero" d="M322 65h66v186h-66zM245 251h-76V106h76zM92 189.49V251h76V57h-25.44a140.375 140.375 0 0 0-27.518 68.05c-2.372 19.385-8.387 44.034-23.042 64.44zM321 251h-76V26h76z" opacity=".1"/>
       <path fill="#FFF" fill-rule="nonzero" d="M.447 302H388v-51H10.117c-9.45 15.654-11.09 34.295-9.67 51z" opacity=".1"/>
       <g fill="#F55F44" fill-rule="nonzero" opacity=".5">
           <path d="M205.786 144.829c1.717.77 3.48 1.653 4.59 3.168 1.865 2.528 1.397 6.14-.03 8.938-1.427 2.798-3.667 5.095-5.384 7.708-1.718 2.613-2.924 5.909-1.934 8.892.99 2.983 3.752 4.821 6.223 6.694a57.629 57.629 0 0 1 8.85 8.33c2.224 2.582 4.309 6.166 2.77 9.195-1.258 2.482-4.31 3.315-6.874 4.421-4.792 2.07-8.846 6.043-10.412 11-1.594 5.045-.596 10.695-2.6 15.594-.506 1.245-1.245 2.455-2.394 3.164-.856.471-1.8.764-2.773.86-2.48.366-5.028.35-7.461.878-5.106 1.099-9.419 4.437-13.271 7.952a108.775 108.775 0 0 0-10.594 11.126c-1.876-3.526-5.686-5.627-7.96-8.914-4.835-7-1.753-17.702-7.477-24-2.708-2.98-7.144-4.602-8.455-8.402-.643-1.854-.387-3.912.255-5.781a15.358 15.358 0 0 1 6.482-8.063c2.112-1.288 4.615-2.124 6.15-4.063 1.312-1.657 1.69-3.854 1.706-5.977.054-6.01-2.417-12.08-.928-17.903 1.396-5.458 6.51-9.759 12.145-10.214 1.478-.12 2.978 0 4.433-.273 2.421-.459 4.506-1.97 6.332-3.62 4.378-3.961 7.971-9.138 13.313-11.947 4.858-2.556 10.594-.879 15.298 1.237z"/>
           <path stroke="#535461" d="M205.724 145.022s-52.875 79.3-44.771 102.52M221.714 196.232s-14.81-10.718-40.776-9.82M175.678 196.46s-.623-19.445-17.963-32.815M201.179 229.027s-19.877-16.01-33.454-15.482M164.19 222.745s-8.567-11.636-23.888-14.646" opacity=".6"/>
       </g>
       <g opacity=".5">
           <path fill="#4DB6AC" fill-rule="nonzero" d="M317.755 145.095c1.759-.63 3.624-1.207 5.46-.886 3.064.542 5.225 3.484 6.129 6.5.904 3.015.885 6.232 1.467 9.328.582 3.097 1.977 6.306 4.727 7.793 2.75 1.486 6 .898 9.052.542a56.571 56.571 0 0 1 12.056-.113c3.367.33 7.317 1.48 8.305 4.746.809 2.671-.796 5.389-1.87 7.963-2.003 4.811-2.163 10.506.131 15.186 2.333 4.76 6.934 8.167 8.872 13.103.49 1.254.801 2.644.468 3.948a7.234 7.234 0 0 1-1.39 2.547c-1.533 1.982-3.341 3.728-4.728 5.807-2.892 4.335-3.678 9.74-4.015 14.957-.33 5.13-.303 10.277.084 15.403-3.77-1.254-7.937-.136-11.822-.945-8.27-1.722-13.434-11.613-21.858-12.217-3.984-.282-8.271 1.61-11.826-.232-1.732-.898-2.961-2.574-3.785-4.359a15.563 15.563 0 0 1-.916-10.335c.625-2.396 1.84-4.738 1.602-7.204-.203-2.11-1.452-3.972-2.893-5.512-4.102-4.394-10.056-7.08-12.99-12.34-2.758-4.925-2.061-11.587 1.651-15.818.973-1.11 2.13-2.063 2.98-3.27 1.414-2.01 1.866-4.549 2.035-7.01.402-5.904-.59-12.148 1.298-17.88 1.717-5.207 6.95-7.967 11.776-9.702z"/>
           <path stroke="#535461" d="M317.851 145.27s16.768 94.107 38.546 105.329M364.507 171.317s-17.959 2.493-35.903 21.132M331.76 203.373s-13.825-13.66-35.408-11.334M372.399 209.311s-25.223 2.164-34.562 11.954M341.63 230.377s-14.133-2.5-27.161 5.922" opacity=".6"/>
       </g>
       <g fill-rule="nonzero" transform="translate(106 17)">
           <path fill="#3C354C" d="M51.207 275.613h205.6v1h-205.6z"/>
           <path fill="#57B894" d="M114.923 124.946c-.046-1.933-.587-3.552-1.364-4.445l-.614 2.423v-2.91a1.476 1.476 0 0 0-.9-.213c-1.512.14-2.679 2.679-2.61 5.67.07 2.993 1.353 5.308 2.864 5.169 1.511-.14 2.694-2.69 2.624-5.694z"/>
           <path fill="#000" d="M114.556 126.403c-.634.14-1.248.53-1.882.607-.634.078-1.33-.224-1.727-1.202-.217-.526-.325-1.19-.507-1.766a3.591 3.591 0 0 0-.691-1.284 9.999 9.999 0 0 0-.294 2.706c.07 2.992 1.353 5.304 2.864 5.164 1.267-.116 2.291-1.932 2.546-4.275-.103.01-.207.028-.309.05z" opacity=".1"/>
           <path fill="#57B894" d="M240.479 104.965c-1.353-1.357-2.872-2.169-4.05-2.28l1.209 2.164-1.99-2.122a1.496 1.496 0 0 0-.8.464c-1.001 1.16-.097 3.788 2.017 5.91 2.114 2.122 4.638 2.915 5.635 1.77.997-1.144.08-3.795-2.021-5.906z"/>
           <path fill="#000" d="M241.197 106.268c-.363.533-.54 1.24-.946 1.731-.406.491-1.117.754-2.08.325-.521-.232-1.059-.641-1.584-.931a3.586 3.586 0 0 0-1.388-.46 10.07 10.07 0 0 0 1.655 2.168c2.113 2.122 4.637 2.915 5.634 1.77.835-.958.333-2.972-1.097-4.85-.071.077-.136.16-.194.247z" opacity=".1"/>
           <path fill="#FFC1C7" d="M141.13 112.874l-6.655-3.866s-16.085-2.218-13.867-9.984c2.219-7.766 13.314 0 13.314 0l7.208 4.96v8.89z"/>
           <path fill="#000" d="M141.13 112.874l-6.655-3.866s-16.085-2.218-13.867-9.984c2.219-7.766 13.314 0 13.314 0l7.208 4.96v8.89z" opacity=".1"/>
           <path fill="#FFC1C7" d="M165.531 73.488s-16.08 11.65-16.08 7.766c0-2.32-2.806-9.482-5.048-14.813-1.484-3.533-2.705-6.266-2.705-6.266l16.618-4.438a19.413 19.413 0 0 0 .185 8.118 15.648 15.648 0 0 0 7.03 9.633zM132.268 172.38s-12.753 28.292-8.32 38.83c0 0-13.863 42.161-18.3 43.823-4.436 1.662 11.092 4.438 11.092 4.438s18.291-24.407 19.393-43.824c1.101-19.416 21.081-39.378 21.081-39.378l-24.946-3.889zM161.64 183.876s7.207 23.302 16.637 29.958c0 0 19.412 32.173 16.618 42.158 0 0 11.091 1.666 11.648 0 0 0-4.993-34.948-17.194-48.814-12.2-13.866-6.624-30.523-6.624-30.523l-21.086 7.221z"/>
           <path fill="#F2F2F2" d="M112.844 255.59s-6.655-5.547-11.644-1.11c-4.99 4.438-13.866 3.329-20.521 1.11-6.655-2.219-6.099 3.328 9.43 10.537 15.528 7.21 24.4 8.891 24.4 8.891s2.22-8.89 2.22-11.094c0-2.203 1.379-6.367 1.379-6.367l-5.264-1.967zM200.472 254.883s-6.655-3.866-7.765 3.328c-1.109 7.194-17.193 11.65-17.193 11.65s-7.764 7.21 16.084 4.98c23.85-2.231 22.183-6.657 22.183-6.657l-7.551-14.357-5.758 1.056z"/>
           <path fill="#3F3D56" d="M141.13 146.713s-17.194 24.407-10.54 27.179c6.656 2.771 6.103-4.438 12.754 3.328s23.849 3.865 26.067 2.219c2.219-1.647 7.764-8.891 12.201-8.319 4.437.572-7.22-28.292-7.22-28.292l-33.262 3.885z"/>
           <path fill="#000" d="M157.002 61.462c-2.373 2.215-4.05 5.972-7.552 5.972a13.219 13.219 0 0 1-5.047-.993c-1.484-3.533-2.705-6.266-2.705-6.266l16.618-4.438c-.541 3.178-1.882 3.468-1.314 5.725z" opacity=".1"/>
           <ellipse cx="149.45" cy="52.962" fill="#FFC1C7" rx="13.31" ry="13.313"/>
           <path fill="#F2F2F2" d="M157.214 71.826s-5.75 5.837-8.42 6.246c-2.671.41-12.661 17.604-9.883 31.474 2.78 13.87-3.327 42.714-.552 44.376 2.775 1.662 47.149-6.1 47.149-6.1l-28.294-75.996z"/>
           <path fill="#EC7580" d="M162.76 69.05s-9.982-3.328-13.31 14.423c-3.327 17.75-7.764 2.775-7.764 25.512 0 22.737-1.665 31.068 1.11 50.48 2.774 19.413 4.989 19.417 1.661 26.073-3.327 6.657 35.493 4.995 44.923-7.765s-2.775-60.465-7.764-67.678c-4.99-7.213-4.993-29.398-8.889-34.945a14.882 14.882 0 0 0-9.967-6.1z"/>
           <path fill="#2F2E41" d="M162.463 177.63l-4.912-6.147-15.68-74.844 10.54-19.676a11.671 11.671 0 0 1 8.958-6.088 11.446 11.446 0 0 1 10.048 3.865c15.254 17.372 22.91 71.238 23.227 73.523l.03.216-1.545 4.025-8.116 18.195-22.55 6.93zm-3.366-6.873l3.957 4.948 20.73-6.394 7.791-17.465 1.388-3.583c-.55-3.78-8.344-55.985-22.802-72.444a9.985 9.985 0 0 0-16.29 1.91l-10.249 19.145 15.475 73.883z"/>
           <path fill="#EF63FF" d="M128.929 102.89l-14.411-12.823a.87.87 0 0 1-.143-1.129l.177-.27a.773.773 0 0 1 1.187-.14l13.14 12.177a1.508 1.508 0 0 1 .05 2.184z"/>
           <path fill="#192534" d="M128.929 102.89l-14.411-12.823a.87.87 0 0 1-.143-1.129l.177-.27 14.342 12.864a.932.932 0 0 1 .035 1.357z"/>
           <path fill="#FFC1C7" d="M171.633 105.66s-20.52-1.661-24.401-8.89c-3.88-7.228-13.866-3.328-11.092 0 2.775 3.328 2.219 11.094 9.983 11.65 7.764.557 27.172 4.454 27.172 4.454l-1.662-7.213z"/>
           <path fill="#2F2E41" d="M193.817 148.375s-13.867 1.11-17.194 15.532c-3.328 14.422-18.3 7.213-18.3 7.213s-1.665 37.72 22.736 28.292c24.402-9.428 29.952-27.183 29.952-29.401 0-2.22-16.638-15.532-17.194-21.636z"/>
           <path fill="#000" d="M159.433 173.892s14.96 7.213 18.299-7.21c3.169-13.738 15.888-15.396 17.093-15.524a7.427 7.427 0 0 1-1.008-2.783s-13.867 1.11-17.194 15.532c-3.328 14.422-18.3 7.213-18.3 7.213s-.54 12.312 3.544 21.11c-2.871-8.4-2.434-18.338-2.434-18.338zM210.89 170.857a4.64 4.64 0 0 0 .12-.835c0-1.898-12.177-11.921-16.042-18.597.82 5.157 12.135 14.994 15.923 19.432z" opacity=".1"/>
           <path fill="#2F2E41" d="M132.268 43.623c-.773 2.427 1.728 4.882 4.251 5.137 2.524.255 4.97-.955 7.281-2.037 2.311-1.082 4.893-2.095 7.362-1.438 2.706.715 4.507 3.231 5.708 5.744a28.656 28.656 0 0 1 2.277 6.912c.494 2.559.722 5.373 2.48 7.306 1.76 1.932 4.677 2.454 7.344 2.443 2.666-.012 5.364-.387 7.934.27 5.101 1.33 8.259 6.413 10.079 11.35 1.82 4.936 2.914 10.313 6.21 14.422 2.748 3.432 6.756 5.609 10.771 7.414 2.025.908 4.124 1.755 6.334 1.964 2.211.208 4.584-.306 6.184-1.821 1.805-1.693 2.384-4.275 2.875-6.695.715-3.51 1.43-7.117.839-10.654-.773-4.638-3.753-8.716-4.437-13.374-.665-4.53.9-9.104.742-13.68-.266-7.662-5.905-14.844-13.298-16.943-2.705-.773-5.546-.913-8.143-1.933-3.385-1.35-5.994-4.063-8.761-6.432A53.285 53.285 0 0 0 163.3 20.085c-5.696-1.264-12.436-1.283-16.463 2.927-1.635 1.712-2.705 4.027-4.792 5.172-1.07.591-2.3.804-3.452 1.202-5.688 1.956-8.958 9.045-6.751 14.627"/>
           <path fill="#000" d="M213.646 97.563c-2.21-.21-4.309-1.056-6.334-1.964-4.015-1.805-8.02-3.982-10.77-7.414-3.297-4.11-4.395-9.482-6.211-14.423-1.817-4.94-4.978-10.02-10.08-11.349-2.57-.672-5.278-.282-7.933-.27-2.655.011-5.546-.48-7.343-2.444-1.797-1.963-1.987-4.746-2.481-7.305a28.61 28.61 0 0 0-2.277-6.912c-1.202-2.513-3.01-5.025-5.708-5.744-2.47-.657-5.05.355-7.362 1.438-2.311 1.082-4.738 2.292-7.281 2.037-2.543-.255-5.024-2.706-4.251-5.137l-.387.386a10.71 10.71 0 0 1-.262-6.83c-3.274 3.073-4.738 8.156-3.069 12.37l.387-.387c-.773 2.428 1.727 4.882 4.25 5.137 2.524.255 4.97-.955 7.282-2.037 2.31-1.082 4.892-2.095 7.362-1.438 2.705.715 4.506 3.232 5.708 5.744a28.656 28.656 0 0 1 2.276 6.912c.495 2.559.723 5.373 2.481 7.306 1.759 1.933 4.677 2.454 7.343 2.443 2.667-.012 5.364-.387 7.934.27 5.102 1.33 8.26 6.413 10.08 11.35 1.82 4.936 2.913 10.313 6.21 14.422 2.748 3.433 6.755 5.609 10.77 7.414 2.026.909 4.124 1.755 6.335 1.964 2.21.209 4.583-.306 6.183-1.82 1.36-1.276 2.025-3.062 2.481-4.902a8.454 8.454 0 0 1-5.333 1.183z" opacity=".1"/>
           <use fill="#EC7580" xlink:href="#a"/>
           <use fill="#000" filter="url(#b)" xlink:href="#a"/>
           <ellipse cx="158.838" cy="53.151" fill="#FFC1C7" rx="2.67" ry="4.005"/>
           <ellipse cx="158.838" cy="53.596" fill="#F2F2F2" rx="1.333" ry="1.334"/>
           <ellipse cx="157.724" cy="55.598" fill="#F2F2F2" rx="1.558" ry="1" transform="rotate(-63.3 157.724 55.598)"/>
           <path fill="#57B894" d="M213.859 14.005c-.047-1.914-.588-3.553-1.364-4.446l-.615 2.424v-2.91a1.476 1.476 0 0 0-.9-.213c-1.511.139-2.679 2.679-2.609 5.67.07 2.993 1.353 5.308 2.864 5.169 1.51-.14 2.693-2.69 2.624-5.694z"/>
           <path fill="#000" d="M213.492 15.462c-.634.14-1.249.53-1.882.607-.634.077-1.33-.224-1.728-1.202-.216-.526-.325-1.19-.506-1.767a3.591 3.591 0 0 0-.692-1.283 9.998 9.998 0 0 0-.294 2.706c.07 2.992 1.353 5.303 2.864 5.164 1.268-.116 2.292-1.933 2.547-4.275-.104.01-.207.027-.31.05z" opacity=".1"/>
           <path fill="#57B894" d="M241.878 171.696c1.75-.773 3.053-1.906 3.578-2.969l-2.454.356 2.705-1.098a1.496 1.496 0 0 0-.146-.912c-.708-1.342-3.502-1.446-6.238-.232-2.736 1.214-4.382 3.282-3.675 4.638.707 1.357 3.49 1.43 6.23.217z"/>
           <path fill="#000" d="M240.401 171.909c-.386-.53-.966-.947-1.279-1.504-.313-.557-.305-1.314.445-2.057.386-.386.973-.773 1.433-1.16.383-.307.698-.692.924-1.128-.902.138-1.78.398-2.613.773-2.736 1.214-4.382 3.282-3.675 4.639.595 1.125 2.659 1.38 4.924.715a2.745 2.745 0 0 0-.159-.278z" opacity=".1"/>
           <path fill="#57B894" d="M93.088 189.477c1.75-.773 3.053-1.905 3.579-2.968l-2.454.355 2.705-1.097a1.496 1.496 0 0 0-.147-.913c-.707-1.341-3.501-1.445-6.237-.232-2.737 1.214-4.383 3.282-3.676 4.639.708 1.357 3.49 1.43 6.23.216z"/>
           <path fill="#000" d="M91.612 189.69c-.387-.53-.966-.947-1.28-1.504-.312-.556-.305-1.314.445-2.056.387-.387.974-.773 1.434-1.16.383-.308.697-.692.923-1.128-.901.138-1.78.398-2.612.773-2.736 1.213-4.383 3.281-3.675 4.638.595 1.125 2.659 1.38 4.923.715a2.745 2.745 0 0 0-.158-.278z" opacity=".1"/>
           <path fill="#484848" d="M24.347 14.689h49.081v4.639H24.347z" opacity=".096"/>
           <path stroke="#FFF" stroke-width="3" d="M95.65 74.555L85.687 57.21H0V.387h112.848V57.21H95.65v17.345zM.386 56.824h85.525l9.353 16.285V56.824h17.198V.774H.386v56.05z" opacity=".194"/>
           <path d="M95.65 74.168l-9.963-17.344H0V0h112.848v56.824H95.65v17.344zM.386 56.437h85.525l9.353 16.286V56.437h17.198V.387H.386v56.05z"/>
           <ellipse cx="12.753" cy="17.008" fill="#484848" opacity=".096" rx="6.377" ry="6.378"/>
           <ellipse cx="92.559" cy="43.487" fill="#EF63FF" opacity=".3" rx="2.319" ry="2.319"/>
           <ellipse cx="98.356" cy="43.487" fill="#EF63FF" opacity=".3" rx="2.319" ry="2.319"/>
           <ellipse cx="104.153" cy="43.487" fill="#EF63FF" opacity=".3" rx="2.319" ry="2.319"/>
       </g>
   </g>
</svg>